<svg width="98" height="98" viewBox="0 0 98 98" fill="none" xmlns="http://www.w3.org/2000/svg">
<path d="M49 29.75C52.866 29.75 56 26.616 56 22.75C56 18.884 52.866 15.75 49 15.75C45.134 15.75 42 18.884 42 22.75C42 26.616 45.134 29.75 49 29.75Z" fill="#C9F31D"/>
<path d="M49 98C76.062 98 98 76.062 98 49C98 21.938 76.062 0 49 0C21.938 0 0 21.938 0 49C0.0315 76.0498 21.9503 97.9685 49 98ZM49 3.5C74.13 3.5 94.5 23.87 94.5 49C94.5 74.13 74.13 94.5 49 94.5C23.87 94.5 3.5 74.13 3.5 49C3.52975 23.8822 23.8822 3.52975 49 3.5Z" fill="#C9F31D"/>
<path d="M24.0975 42L38.9725 43.3493C40.2789 43.4613 41.4954 44.0605 42.3804 45.0279C43.2655 45.9953 43.7543 47.2601 43.75 48.5713V52.5963C43.75 53.9088 43.505 55.2108 43.0237 56.4323L34.573 77.9573C34.4596 78.1656 34.3897 78.3948 34.3676 78.631C34.3455 78.8671 34.3716 79.1053 34.4444 79.3311C34.5172 79.5568 34.6351 79.7654 34.791 79.9442C34.9469 80.123 35.1375 80.2682 35.3513 80.371C35.565 80.4739 35.7974 80.5322 36.0344 80.5424C36.2714 80.5527 36.508 80.5146 36.7298 80.4306C36.9516 80.3466 37.154 80.2184 37.3248 80.0537C37.4955 79.889 37.631 79.6914 37.723 79.4728L45.7835 59.9008C46.0456 59.2657 46.4904 58.7226 47.0615 58.3406C47.6325 57.9585 48.3042 57.7545 48.9912 57.7545C49.6783 57.7545 50.35 57.9585 50.921 58.3406C51.4921 58.7226 51.9368 59.2657 52.199 59.9008L60.2822 79.5218C60.4907 79.9225 60.8461 80.227 61.274 80.3717C61.7019 80.5164 62.1692 80.4901 62.5781 80.2982C62.9871 80.1063 63.3059 79.7637 63.4681 79.342C63.6302 78.9204 63.623 78.4525 63.448 78.036L54.9762 56.4323C54.4957 55.2099 54.2493 53.908 54.25 52.5945V48.5695C54.2443 47.2577 54.7323 45.9918 55.6171 45.0233C56.502 44.0549 57.7188 43.4548 59.0257 43.3423L73.878 42C74.1094 41.9854 74.3356 41.9249 74.5435 41.8222C74.7513 41.7194 74.9366 41.5763 75.0887 41.4013C75.2408 41.2262 75.3566 41.0227 75.4293 40.8025C75.5021 40.5824 75.5303 40.35 75.5125 40.1188C75.4972 39.889 75.4365 39.6646 75.3338 39.4585C75.2312 39.2524 75.0886 39.0688 74.9144 38.9182C74.7402 38.7676 74.5379 38.6531 74.3191 38.5813C74.1004 38.5095 73.8695 38.4819 73.64 38.5L55.2772 40.1485C54.5495 40.2162 53.8189 40.25 53.088 40.25H44.912C44.1805 40.25 43.4507 40.2168 42.7227 40.152L24.3442 38.5C23.8801 38.4673 23.422 38.6203 23.0707 38.9253C22.7193 39.2304 22.5036 39.6625 22.4709 40.1266C22.4381 40.5908 22.5911 41.0489 22.8962 41.4002C23.2012 41.7515 23.6334 41.9673 24.0975 42Z" fill="#C9F31D"/>
<path d="M49 91C72.1963 91 91 72.1963 91 49C91 25.8038 72.1963 7 49 7C25.8038 7 7 25.8038 7 49C7.02625 72.184 25.816 90.9738 49 91ZM49 12.25C51.7848 12.25 54.4555 13.3562 56.4246 15.3254C58.3938 17.2945 59.5 19.9652 59.5 22.75C59.5 25.5348 58.3938 28.2055 56.4246 30.1746C54.4555 32.1438 51.7848 33.25 49 33.25C46.2152 33.25 43.5445 32.1438 41.5754 30.1746C39.6062 28.2055 38.5 25.5348 38.5 22.75C38.5 19.9652 39.6062 17.2945 41.5754 15.3254C43.5445 13.3562 46.2152 12.25 49 12.25ZM24.6278 35.014L43.0343 36.666C43.659 36.722 44.2838 36.75 44.912 36.75H53.088C53.7145 36.75 54.341 36.722 54.9658 36.666L73.3408 35.0158H73.3688C74.0562 34.9634 74.7473 35.0469 75.4025 35.2616C76.0577 35.4762 76.6642 35.8179 77.1874 36.267C77.7106 36.716 78.1402 37.2638 78.4517 37.8789C78.7632 38.494 78.9505 39.1644 79.0029 39.8519C79.0553 40.5394 78.9717 41.2304 78.7571 41.8856C78.5424 42.5409 78.2008 43.1474 77.7517 43.6705C77.3026 44.1937 76.7549 44.6233 76.1398 44.9348C75.5247 45.2463 74.8542 45.4336 74.1668 45.486L59.339 46.8318C58.9042 46.871 58.4998 47.0714 58.2051 47.3936C57.9105 47.7158 57.7469 48.1364 57.7465 48.573V52.598C57.7461 53.4735 57.9099 54.3414 58.2295 55.1565L66.6803 76.6815C67.2049 77.9493 67.2123 79.3721 66.701 80.6453C66.1898 81.9185 65.2003 82.941 63.9446 83.4939C62.6889 84.0467 61.2666 84.086 59.9822 83.6033C58.6979 83.1206 57.6535 82.1543 57.0728 80.9113L48.9703 61.229L40.95 80.85C40.6784 81.4916 40.2817 82.0728 39.7832 82.5595C39.2847 83.0463 38.6943 83.429 38.0463 83.6853C37.3984 83.9415 36.706 84.0663 36.0094 84.0522C35.3127 84.0381 34.6259 83.8855 33.9889 83.6033C33.3518 83.3211 32.7773 82.9148 32.2989 82.4083C31.8204 81.9018 31.4476 81.3051 31.2021 80.6531C30.9566 80.001 30.8433 79.3066 30.869 78.6103C30.8946 77.914 31.0585 77.2298 31.3513 76.5975L39.7723 55.1495C40.09 54.3352 40.2521 53.4686 40.25 52.5945V48.5695C40.2496 48.1329 40.086 47.7123 39.7914 47.3901C39.4967 47.0679 39.0923 46.8675 38.6575 46.8283L23.8 45.4825C23.1126 45.4285 22.4426 45.2396 21.8282 44.9267C21.2139 44.6138 20.6671 44.1829 20.2193 43.6586C19.7714 43.1344 19.4312 42.5271 19.2181 41.8714C19.0049 41.2157 18.923 40.5244 18.977 39.837C19.031 39.1496 19.2199 38.4796 19.5328 37.8652C19.8458 37.2509 20.2766 36.7041 20.8009 36.2563C21.3251 35.8084 21.9324 35.4682 22.5881 35.2551C23.2439 35.0419 23.9351 34.96 24.6225 35.014H24.6278Z" fill="#C9F31D"/>
</svg>
