<svg width="100" height="100" viewBox="0 0 100 100" fill="none" xmlns="http://www.w3.org/2000/svg">
<path d="M50 0.500007C40.2098 0.500007 30.6395 3.40313 22.4993 8.84226C14.3591 14.2814 8.01452 22.0122 4.26799 31.0572C0.521448 40.1021 -0.458818 50.0549 1.45115 59.657C3.36112 69.259 8.07554 78.0791 14.9982 85.0018C21.9209 91.9245 30.741 96.6389 40.3431 98.5489C49.9451 100.459 59.8979 99.4786 68.9429 95.732C77.9878 91.9855 85.7186 85.641 91.1578 77.5007C96.5969 69.3605 99.5 59.7902 99.5 50C99.5036 43.4986 98.2256 37.0602 95.7393 31.053C93.2529 25.0458 89.6069 19.5875 85.0097 14.9903C80.4125 10.3931 74.9543 6.74709 68.9471 4.26074C62.9398 1.77439 56.5015 0.496458 50 0.500007ZM56.345 69.08L53.195 72.275C49.8175 75.6525 45.2366 77.55 40.46 77.55C35.6835 77.55 31.1026 75.6525 27.725 72.275C24.3475 68.8975 22.45 64.3166 22.45 59.54C22.45 54.7635 24.3475 50.1825 27.725 46.805L30.92 43.655C31.7809 42.9178 32.8882 42.5326 34.0208 42.5763C35.1533 42.6201 36.2276 43.0896 37.0291 43.891C37.8305 44.6924 38.3 45.7667 38.3437 46.8993C38.3875 48.0318 38.0022 49.1392 37.265 50L34.07 53.195C32.3813 54.8838 31.4325 57.1742 31.4325 59.5625C31.4325 61.9508 32.3813 64.2412 34.07 65.93C35.7588 67.6188 38.0492 68.5675 40.4375 68.5675C42.8258 68.5675 45.1163 67.6188 46.805 65.93L50 62.735C50.8609 61.9978 51.9682 61.6126 53.1008 61.6563C54.2333 61.7001 55.3076 62.1695 56.1091 62.971C56.9105 63.7724 57.38 64.8467 57.4237 65.9793C57.4675 67.1118 57.0822 68.2192 56.345 69.08ZM57.965 48.425L48.425 57.965C47.5777 58.8124 46.4284 59.2884 45.23 59.2884C44.0317 59.2884 42.8824 58.8124 42.035 57.965C41.1877 57.1176 40.7116 55.9684 40.7116 54.77C40.7116 53.5717 41.1877 52.4224 42.035 51.575L51.575 42.035C52.4224 41.1876 53.5717 40.7116 54.77 40.7116C55.9684 40.7116 57.1177 41.1876 57.965 42.035C58.8124 42.8824 59.2884 44.0317 59.2884 45.23C59.2884 46.4284 58.8124 47.5776 57.965 48.425ZM72.275 53.195L69.08 56.345C68.2192 57.0822 67.1118 57.4675 65.9793 57.4237C64.8467 57.38 63.7724 56.9105 62.971 56.109C62.1696 55.3076 61.7001 54.2333 61.6563 53.1007C61.6126 51.9682 61.9978 50.8609 62.735 50L65.93 46.805C67.6188 45.1162 68.5675 42.8258 68.5675 40.4375C68.5675 38.0492 67.6188 35.7588 65.93 34.07C64.2413 32.3812 61.9508 31.4325 59.5625 31.4325C57.1742 31.4325 54.8838 32.3812 53.195 34.07L50 37.265C49.1392 38.0022 48.0318 38.3875 46.8993 38.3437C45.7667 38.3 44.6924 37.8305 43.891 37.029C43.0896 36.2276 42.6201 35.1533 42.5763 34.0207C42.5326 32.8882 42.9178 31.7809 43.655 30.92L46.805 27.725C50.1826 24.3475 54.7635 22.45 59.54 22.45C64.3166 22.45 68.8975 24.3475 72.275 27.725C75.6526 31.1025 77.55 35.6835 77.55 40.46C77.55 45.2366 75.6526 49.8175 72.275 53.195Z" fill="#C9F31D"/>
</svg>
