<svg width="100" height="99" viewBox="0 0 100 99" fill="none" xmlns="http://www.w3.org/2000/svg">
<path d="M75.9963 9.10325C75.6539 9.43539 75.4667 9.88059 75.4667 10.3452V16.7724L84.3833 7.93902V0.796387L75.9963 9.10325Z" fill="#C9F31D"/>
<path d="M38.5392 60.8489C39.2151 61.5149 40.385 61.5149 41.0608 60.8489L94.5608 7.84889C95.2563 7.15989 95.2563 6.03983 94.5608 5.35083C94.2131 5.00633 93.7566 4.83496 93.3 4.83496C92.8435 4.83496 92.387 5.00633 92.0392 5.35083L38.5392 58.3508C37.8437 59.0398 37.8437 60.1599 38.5392 60.8489Z" fill="#C9F31D"/>
<path d="M42.5357 49.3956C38.9155 48.4593 34.9458 49.4186 32.2333 52.1039C28.0621 56.2379 28.0621 62.9618 32.2333 67.0958C36.4081 71.2263 43.1955 71.2245 47.3667 67.0958C50.0863 64.4017 51.0511 60.4708 50.097 56.8916L43.5807 63.347C42.5713 64.3469 41.2267 64.8999 39.7982 64.8999C38.3698 64.8999 37.0252 64.3487 36.0158 63.347C33.9293 61.28 33.9293 57.9198 36.0158 55.8528L42.5357 49.3956Z" fill="#C9F31D"/>
<path d="M0.648712 57.8333H11.3701C11.7856 51.1924 14.5141 44.6698 19.6162 39.6083C24.6845 34.5981 31.2775 31.8403 38.0167 31.4198V20.8499C28.524 21.2809 19.1793 25.0669 12.0656 32.1247C5.07138 39.0448 1.08741 48.1201 0.648712 57.8333Z" fill="#C9F31D"/>
<path d="M41.5833 31.4374C46.5713 31.7377 51.4951 33.3242 55.8215 36.2339L63.4577 28.669C56.9878 23.7965 49.3337 21.1801 41.5833 20.8462V31.4374Z" fill="#C9F31D"/>
<path d="M83.0316 24.2664H89.5194C89.9884 24.2664 90.4396 24.0827 90.757 23.7576L99.1583 15.4331H91.9483L83.0316 24.2664Z" fill="#C9F31D"/>
<path d="M63.3757 43.7387C66.3146 48.0211 67.9178 52.8954 68.2228 57.8332H78.9174C78.5804 50.1535 75.9428 42.5692 71.028 36.158L63.3739 43.7405L63.3757 43.7387Z" fill="#C9F31D"/>
<path d="M59.9838 79.5914C54.871 84.6476 48.2851 87.3507 41.5833 87.7623V98.3835C51.3881 97.9489 60.5509 94.0021 67.5344 87.075C74.657 80.0278 78.4769 70.7705 78.9139 61.3647H68.2424C67.8197 68.041 65.0395 74.5723 59.9838 79.5897V79.5914Z" fill="#C9F31D"/>
<path d="M11.3701 61.3665H0.648712C1.08741 71.0796 5.07138 80.1567 12.0638 87.075C19.0491 94.0039 28.2119 97.9506 38.0167 98.3852V87.764C31.3131 87.3524 24.7308 84.6494 19.6198 79.5967C14.5159 74.5317 11.7874 68.0091 11.3719 61.3682L11.3701 61.3665Z" fill="#C9F31D"/>
<path d="M41.5833 84.2342C47.372 83.8279 53.0448 81.4623 57.4621 77.0933C61.8295 72.7579 64.2566 67.1311 64.6722 61.3664H62.9833C61.9972 61.3664 61.2 60.5767 61.2 59.5998C61.2 58.6228 61.9972 57.8331 62.9833 57.8331H64.6561C64.3708 53.8016 63.1082 49.8213 60.8148 46.2773L52.8915 54.1266C54.8834 58.8048 54.1719 64.2337 51.0457 68.2423L54.9334 72.0936C55.6307 72.7844 55.6307 73.9009 54.9334 74.5917C54.5856 74.9362 54.1291 75.1093 53.6726 75.1093C53.216 75.1093 52.7595 74.9362 52.4117 74.5917L48.5419 70.758C45.9793 72.7296 42.8941 73.7278 39.8018 73.7278C36.7095 73.7278 33.6243 72.7314 31.0617 70.758L27.1918 74.5917C26.8441 74.9362 26.3876 75.1093 25.931 75.1093C25.4745 75.1093 25.018 74.9362 24.6702 74.5917C23.9729 73.9009 23.9729 72.7844 24.6702 72.0936L28.54 68.26C24.5596 63.1826 24.5596 56.0205 28.54 50.9431L24.6702 47.1094C23.9729 46.4187 23.9729 45.3021 24.6702 44.6114C25.3675 43.9206 26.4946 43.9206 27.1918 44.6114L31.0795 48.4627C35.1241 45.3728 40.6061 44.6644 45.3337 46.6271L53.2624 38.7725C49.6815 36.5006 45.6583 35.2516 41.5851 34.9707V36.6349C41.5851 37.6118 40.788 38.4015 39.8018 38.4015C38.8156 38.4015 38.0185 37.6118 38.0185 36.6349V34.9565C32.1994 35.3717 26.5177 37.7779 22.1397 42.1062C17.733 46.4805 15.3469 52.0985 14.9368 57.8331H16.6185C17.6046 57.8331 18.4018 58.6228 18.4018 59.5998C18.4018 60.5767 17.6046 61.3664 16.6185 61.3664H14.9368C15.3469 67.101 17.7348 72.7208 22.1432 77.0968C26.5588 81.4623 32.2298 83.8279 38.0185 84.2342V82.5664C38.0185 81.5895 38.8156 80.7998 39.8018 80.7998C40.788 80.7998 41.5851 81.5895 41.5851 82.5664L41.5833 84.2342Z" fill="#C9F31D"/>
</svg>
