<svg width="106" height="100" viewBox="0 0 106 100" fill="none" xmlns="http://www.w3.org/2000/svg">
<path d="M53 62.4219C70.1509 62.4219 84.0547 48.5181 84.0547 31.3672C84.0547 14.2163 70.1509 0.3125 53 0.3125C35.8491 0.3125 21.9453 14.2163 21.9453 31.3672C21.9453 41.1767 26.5838 49.8176 33.6867 55.5089L28.1562 62.4219H53ZM56.1055 53.1055H49.8945V46.8945H56.1055V53.1055ZM53 9.62891C59.8509 9.62891 65.4219 15.1999 65.4219 22.0508C65.4219 27.0972 62.4073 31.6038 57.7431 33.5325C56.7636 33.9389 56.1055 35.0306 56.1055 36.2529V40.6836H49.8945V36.2529C49.8945 32.4893 52.0448 29.1685 55.3715 27.7949C57.7037 26.8303 59.2109 24.5741 59.2109 22.0508C59.2109 18.6269 56.4239 15.8398 53 15.8398C49.5761 15.8398 46.7891 18.6269 46.7891 22.0508H40.5781C40.5781 15.1999 46.1491 9.62891 53 9.62891Z" fill="#C9F31D"/>
<path d="M11.9484 92.7745L6.41797 99.6875H31.2617C41.052 99.6875 49.6778 95.0658 55.3697 87.9869C48.131 83.5581 42.5286 76.7466 39.6467 68.6328H15.234L25.2752 56.0836C21.3778 51.7594 18.7227 46.6035 17.201 41.0896C7.155 46.2327 0 56.5714 0 68.6328C0 78.4424 4.84557 87.0833 11.9484 92.7745Z" fill="#C9F31D"/>
<path d="M90.1666 29.4099C90.2008 30.0623 90.2656 30.7063 90.2656 31.3672C90.2656 51.9167 73.5495 68.6328 53 68.6328H46.3054C51.1017 79.5914 62.011 87.2656 74.7383 87.2656H99.582L94.0516 80.3526C101.154 74.6614 106 66.0205 106 56.2109C106 44.7054 99.4638 34.7755 90.1666 29.4099Z" fill="#C9F31D"/>
</svg>
