<svg width="102" height="102" viewBox="0 0 102 102" fill="none" xmlns="http://www.w3.org/2000/svg">
<path fill-rule="evenodd" clip-rule="evenodd" d="M51.0539 0.203125C79.0765 0.203125 102.004 23.1307 102.004 51.1534C102.004 79.176 79.0765 102.104 51.0539 102.104C23.0313 102.104 0.103653 79.176 0.103653 51.1534C0.103653 23.1307 23.0313 0.203125 51.0539 0.203125Z" fill="#C9F31D"/>
<path fill-rule="evenodd" clip-rule="evenodd" d="M70.6661 24.3083V28.5803H31.4419V24.3083C31.4423 24.0383 31.5498 23.7794 31.7407 23.5885C31.9317 23.3975 32.1906 23.2901 32.4607 23.2898H69.6473C69.9174 23.2901 70.1763 23.3975 70.3673 23.5885C70.5582 23.7794 70.6657 24.0383 70.6661 24.3083ZM68.2179 25.9356C68.2179 25.8551 68.2021 25.7755 68.1714 25.7012C68.1406 25.6268 68.0955 25.5593 68.0386 25.5024C67.9817 25.4455 67.9142 25.4004 67.8399 25.3697C67.7656 25.3389 67.6859 25.3231 67.6055 25.3232H51.3769C51.2145 25.3232 51.0587 25.3877 50.9438 25.5025C50.829 25.6174 50.7645 25.7732 50.7645 25.9356C50.7645 26.098 50.829 26.2538 50.9438 26.3686C51.0587 26.4835 51.2145 26.548 51.3769 26.548H67.6055C67.7679 26.5479 67.9236 26.4834 68.0384 26.3686C68.1533 26.2537 68.2178 26.098 68.2179 25.9356ZM43.1064 25.9356C43.1082 25.8216 43.0872 25.7084 43.0448 25.6026C43.0024 25.4967 42.9394 25.4004 42.8594 25.3192C42.7795 25.2379 42.6841 25.1734 42.579 25.1294C42.4738 25.0854 42.361 25.0627 42.247 25.0627C42.133 25.0627 42.0201 25.0854 41.9149 25.1294C41.8098 25.1734 41.7145 25.2379 41.6345 25.3192C41.5545 25.4004 41.4915 25.4967 41.4491 25.6026C41.4067 25.7084 41.3858 25.8216 41.3875 25.9356C41.391 26.1612 41.4831 26.3764 41.6439 26.5347C41.8047 26.693 42.0213 26.7818 42.247 26.7818C42.4726 26.7818 42.6892 26.693 42.85 26.5347C43.0108 26.3764 43.1029 26.1612 43.1064 25.9356ZM39.509 25.9356C39.509 25.7077 39.4185 25.4891 39.2573 25.3279C39.0962 25.1668 38.8776 25.0762 38.6497 25.0762C38.4218 25.0762 38.2032 25.1668 38.0421 25.3279C37.8809 25.4891 37.7904 25.7077 37.7904 25.9356C37.7879 26.05 37.8082 26.1638 37.8503 26.2703C37.8923 26.3767 37.9552 26.4737 38.0353 26.5555C38.1153 26.6374 38.2109 26.7024 38.3164 26.7467C38.4219 26.7911 38.5352 26.814 38.6497 26.814C38.7642 26.814 38.8775 26.7911 38.983 26.7467C39.0885 26.7024 39.1841 26.6374 39.2641 26.5555C39.3442 26.4737 39.4071 26.3767 39.4491 26.2703C39.4912 26.1638 39.5115 26.05 39.509 25.9356ZM35.9119 25.9356C35.9136 25.8216 35.8927 25.7084 35.8503 25.6026C35.8079 25.4967 35.7449 25.4004 35.6649 25.3192C35.5849 25.2379 35.4896 25.1734 35.3844 25.1294C35.2793 25.0854 35.1664 25.0627 35.0524 25.0627C34.9384 25.0627 34.8256 25.0854 34.7204 25.1294C34.6153 25.1734 34.5199 25.2379 34.4399 25.3192C34.36 25.4004 34.2969 25.4967 34.2545 25.6026C34.2122 25.7084 34.1912 25.8216 34.193 25.9356C34.1965 26.1612 34.2886 26.3764 34.4494 26.5347C34.6102 26.693 34.8268 26.7818 35.0524 26.7818C35.2781 26.7818 35.4947 26.693 35.6555 26.5347C35.8163 26.3764 35.9084 26.1612 35.9119 25.9356ZM31.4419 29.8054H70.6665V56.4773C70.6661 56.7474 70.5586 57.0062 70.3677 57.1971C70.1767 57.388 69.9178 57.4954 69.6477 57.4957H32.4605C32.1904 57.4954 31.9315 57.388 31.7405 57.1971C31.5495 57.0062 31.4421 56.7474 31.4417 56.4773L31.4419 29.8054ZM63.676 42.8852C63.676 42.6947 63.587 42.5143 63.4355 42.3986L57.6341 37.9676C57.505 37.869 57.342 37.8257 57.181 37.8472C57.02 37.8688 56.8741 37.9534 56.7754 38.0825C56.6768 38.2116 56.6335 38.3746 56.655 38.5356C56.6765 38.6967 56.7612 38.8426 56.8903 38.9412L62.0541 42.8852L56.8903 46.8292C56.8264 46.878 56.7727 46.939 56.7323 47.0085C56.692 47.0781 56.6657 47.155 56.6551 47.2347C56.6444 47.3144 56.6496 47.3955 56.6703 47.4732C56.691 47.5509 56.7268 47.6238 56.7756 47.6877C56.8244 47.7517 56.8853 47.8054 56.9548 47.8459C57.0243 47.8863 57.1012 47.9126 57.1809 47.9233C57.2606 47.934 57.3417 47.9288 57.4194 47.9082C57.4972 47.8875 57.57 47.8517 57.6339 47.8028L63.4353 43.3722C63.5101 43.3149 63.5707 43.2412 63.6124 43.1568C63.6542 43.0723 63.6759 42.9794 63.676 42.8852ZM53.5394 36.2668C53.5793 36.1116 53.5568 35.947 53.4768 35.8082C53.3967 35.6694 53.2654 35.5675 53.1111 35.5244C52.9567 35.4813 52.7916 35.5004 52.6512 35.5776C52.5108 35.6548 52.4063 35.784 52.36 35.9374L48.5688 49.5038C48.525 49.6603 48.5452 49.8277 48.6249 49.9692C48.7047 50.1108 48.8373 50.2149 48.9938 50.2586C49.1502 50.3024 49.3177 50.2822 49.4592 50.2025C49.6008 50.1228 49.7049 49.9901 49.7486 49.8336L53.5394 36.2668ZM45.2171 38.941C45.281 38.8922 45.3347 38.8313 45.3751 38.7618C45.4154 38.6922 45.4417 38.6154 45.4524 38.5357C45.463 38.456 45.4578 38.375 45.4371 38.2973C45.4164 38.2196 45.3806 38.1467 45.3317 38.0829C45.283 38.0189 45.2221 37.9652 45.1526 37.9248C45.083 37.8844 45.0062 37.8581 44.9265 37.8473C44.8468 37.8366 44.7658 37.8417 44.688 37.8623C44.6103 37.8829 44.5374 37.9186 44.4734 37.9674L38.6723 42.3984C38.5975 42.4555 38.5368 42.5292 38.4951 42.6136C38.4534 42.698 38.4317 42.7908 38.4318 42.885C38.4318 43.0757 38.5207 43.2557 38.6723 43.3718L44.4734 47.8023C44.5373 47.8512 44.6102 47.887 44.6879 47.9077C44.7657 47.9283 44.8467 47.9335 44.9264 47.9228C45.0062 47.9121 45.083 47.8858 45.1525 47.8454C45.2221 47.805 45.283 47.7513 45.3317 47.6873C45.4302 47.5582 45.4735 47.3953 45.452 47.2343C45.4305 47.0734 45.346 46.9275 45.2171 46.8288L40.0532 42.8848L45.2171 38.941Z" fill="black"/>
<path fill-rule="evenodd" clip-rule="evenodd" d="M77.9218 33.1441V62.9431H24.186V33.1441C24.1864 32.9149 24.2777 32.6951 24.4398 32.533C24.6019 32.3709 24.8217 32.2796 25.0509 32.2792H30.2169V56.4777C30.2169 57.7147 31.2236 58.7209 32.4605 58.7209H69.6471C70.8842 58.7209 71.8907 57.7147 71.8907 56.4777V32.2788H77.0566C77.286 32.2791 77.5059 32.3704 77.6681 32.5326C77.8303 32.6949 77.9215 32.9148 77.9218 33.1441ZM25.0509 68.9196C24.8217 68.9192 24.6019 68.828 24.4398 68.6659C24.2777 68.5037 24.1864 68.284 24.186 68.0547V64.1675H77.9218V68.0545C77.9214 68.2838 77.8301 68.5035 77.668 68.6657C77.5059 68.8278 77.2861 68.919 77.0568 68.9194H25.0509V68.9196ZM53.295 70.1444L54.4531 74.5924H47.6547L48.8128 70.1444H53.295ZM58.2349 75.8173C60.1284 75.8173 61.704 77.205 61.9975 79.0168H40.1103C40.4038 77.2048 41.9794 75.8173 43.8728 75.8173H58.2349Z" fill="black"/>
</svg>
