<svg width="103" height="103" viewBox="0 0 103 103" fill="none" xmlns="http://www.w3.org/2000/svg">
<path d="M51.5004 81.6457C53.7223 81.6457 55.5235 79.8445 55.5235 77.6225C55.5235 75.4006 53.7223 73.5994 51.5004 73.5994C49.2784 73.5994 47.4772 75.4006 47.4772 77.6225C47.4772 79.8445 49.2784 81.6457 51.5004 81.6457Z" fill="#C9F31D"/>
<path d="M62.7239 23.4319H40.2761C39.0178 23.4319 37.994 24.408 37.994 25.6055V68.0388C37.994 69.2374 39.0171 70.2124 40.2761 70.2124H62.7239C63.9822 70.2124 65.006 69.2363 65.006 68.0388V25.6055C65.0054 24.407 63.9822 23.4319 62.7239 23.4319Z" fill="#C9F31D"/>
<path d="M51.4985 0C23.0571 0 0.000244141 23.0586 0.000244141 51.499C0.000244141 79.9393 23.0571 103 51.4985 103C79.9399 103 103 79.9407 103 51.499C103 23.0572 79.9399 0 51.4985 0ZM71.5348 76.9139C71.5348 80.8478 68.3452 84.0377 64.4109 84.0377H38.5875C34.6536 84.0377 31.4637 80.8481 31.4637 76.9139V25.8609C31.4637 21.927 34.6532 18.7371 38.5875 18.7371H64.4109C68.3449 18.7371 71.5348 21.9266 71.5348 25.8609V76.9139Z" fill="#C9F31D"/>
</svg>
